<svg xmlns="http://www.w3.org/2000/svg" viewBox="0 0 64 64" fill="none">
  <defs>
    <linearGradient id="hatFill" x1="12" y1="12" x2="52" y2="52" gradientUnits="userSpaceOnUse">
      <stop offset="0" stop-color="#7C3AED" />
      <stop offset="1" stop-color="#2563EB" />
    </linearGradient>
    <linearGradient id="rimFill" x1="12" y1="48" x2="52" y2="48" gradientUnits="userSpaceOnUse">
      <stop offset="0" stop-color="#38BDF8" />
      <stop offset="1" stop-color="#34D399" />
    </linearGradient>
  </defs>
  <circle cx="32" cy="32" r="28" fill="rgba(255, 255, 255, 0.65)" stroke="rgba(148, 163, 184, 0.35)" stroke-width="2" />
  <path d="M12 24L32 16L52 24L32 32L12 24Z" fill="url(#hatFill)" />
  <path d="M24 30V40C24 44 28 48 32 48C36 48 40 44 40 40V30" stroke="url(#hatFill)" stroke-width="4" stroke-linecap="round" />
  <path d="M18 40C18 37 24.5 34 32 34C39.5 34 46 37 46 40C46 43 39.5 46 32 46C24.5 46 18 43 18 40Z" fill="url(#rimFill)" />
  <circle cx="48" cy="22" r="4" fill="#38BDF8" />
</svg>
